<svg xmlns="http://www.w3.org/2000/svg" xmlns:xlink="http://www.w3.org/1999/xlink" width="24" height="24" viewBox="0 0 24 24"><defs><path id="a" d="m2.977 8.161 5.292 1.08-8.051 9.278 1.664 1.085L12.128 8.161 5.893 6.809 8.821.998 7.387.185z"/><path id="b" d="m10.258 5.885 3.11.583c1.527.286 2.16 2.128 1.13 3.291L5.154 20.325C3.63 22.05.875 20.254 1.84 18.162l3.077-6.67-2.287-.43a2 2 0 0 1-1.36-2.969L5.38.997A2 2 0 0 1 7.111 0h3.084c1.54 0 2.503 1.668 1.731 3.002zM10.195 2H7.111L3 9.096 7.807 10l-4.15 9L13 8.434 7.111 7.331z"/><mask id="c" fill="#fff"><use xlink:href="#a" fill-rule="evenodd"/></mask><mask id="d" fill="#fff"><use xlink:href="#b" fill-rule="evenodd"/></mask></defs><g fill="none" fill-rule="evenodd" transform="translate(4 2)"><g transform="translate(2)"><use xlink:href="#a" fill="#d8d8d8"/><g fill="#ffa0a0" mask="url(#c)"><path d="M-6-2h24v24H-6z"/></g></g><use xlink:href="#b" fill="#000" fill-rule="nonzero"/><g fill="#7600ff" mask="url(#d)"><path d="M-4-2h24v24H-4z"/></g></g></svg>